ply
format ascii 1.0
comment : chr_robot
comment : MagicaVoxel @ ephtracy
element vertex 1100
property float x
property float y
property float z
property uchar red
property uchar green
property uchar blue
element face 880
property list uchar int vertex_index
end_header
1 -1 12 165 165 165
2 -1 12 165 165 165
2 0 12 165 165 165
1 0 12 165 165 165
1.5 -0.5 12 165 165 165
2 -2 9 177 177 177
3 -2 9 188 188 188
3 -1 9 175 175 175
2 -1 9 158 158 158
2.5 -1.5 9 174 174 174
-1 -1 10 204 204 204
0 -1 10 190 190 190
0 0 10 187 187 187
-1 0 10 204 204 204
-0.5 -0.5 10 196 196 196
1 0 5 86 86 86
2 0 5 113 113 113
2 1 5 131 131 131
1 1 5 104 104 104
1.5 0.5 5 108 108 108
-1 -2 10 207 207 207
0 -2 10 201 201 201
0 -1 10 190 190 190
-1 -1 10 204 204 204
-0.5 -1.5 10 201 201 201
-2 -2 10 209 209 209
-1 -2 10 207 207 207
-1 -1 10 204 204 204
-2 -1 10 209 209 209
-1.5 -1.5 10 207 207 207
-2 -2 5 144 144 144
-1 -2 5 127 127 127
-1 -1 5 96 96 96
-2 -1 5 114 114 114
-1.5 -1.5 5 120 120 120
2 -1 5 92 92 92
3 -1 5 118 118 118
3 0 5 115 115 115
2 0 5 88 88 88
2.5 -0.5 5 103 103 103
0 -2 10 201 201 201
1 -2 10 191 191 191
1 -1 10 176 176 176
0 -1 10 190 190 190
0.5 -1.5 10 190 190 190
2 -1 9 158 158 158
3 -1 9 175 175 175
3 0 9 174 174 174
2 0 9 157 157 157
2.5 -0.5 9 166 166 166
1 -1 5 97 97 97
2 -1 5 119 119 119
2 0 5 113 113 113
1 0 5 86 86 86
1.5 -0.5 5 104 104 104
-2 -1 5 114 114 114
-1 -1 5 96 96 96
-1 0 5 84 84 84
-2 0 5 106 106 106
-1.5 -0.5 5 100 100 100
0 0 10 187 187 187
1 0 10 170 170 170
1 1 10 186 186 186
0 1 10 197 197 197
0.5 0.5 10 185 185 185
0 1 9 152 152 152
1 1 9 156 156 156
1 2 9 176 176 176
0 2 9 173 173 173
0.5 1.5 9 164 164 164
-3 0 9 181 181 181
-2 0 9 160 160 160
-2 1 9 172 172 172
-3 1 9 191 191 191
-2.5 0.5 9 176 176 176
0 0 5 72 72 72
1 0 5 86 86 86
1 1 5 104 104 104
0 1 5 93 93 93
0.5 0.5 5 89 89 89
-3 -1 5 113 113 113
-2 -1 5 88 88 88
-2 0 5 82 82 82
-3 0 5 108 108 108
-2.5 -0.5 5 98 98 98
-3 -1 9 182 182 182
-2 -1 9 161 161 161
-2 0 9 160 160 160
-3 0 9 181 181 181
-2.5 -0.5 9 171 171 171
2 0 9 157 157 157
3 0 9 174 174 174
3 1 9 186 186 186
2 1 9 170 170 170
2.5 0.5 9 172 172 172
-2 -1 10 209 209 209
-1 -1 10 204 204 204
-1 0 10 204 204 204
-2 0 10 208 208 208
-1.5 -0.5 10 206 206 206
-1 0 5 84 84 84
0 0 5 72 72 72
0 1 5 93 93 93
-1 1 5 104 104 104
-0.5 0.5 5 88 88 88
-3 -2 9 193 193 193
-2 -2 9 178 178 178
-2 -1 9 161 161 161
-3 -1 9 182 182 182
-2.5 -1.5 9 179 179 179
-1 -2 5 127 127 127
0 -2 5 120 120 120
0 -1 5 92 92 92
-1 -1 5 96 96 96
-0.5 -1.5 5 109 109 109
-1 0 10 204 204 204
0 0 10 187 187 187
0 1 10 197 197 197
-1 1 10 206 206 206
-0.5 0.5 10 198 198 198
0 -1 10 190 190 190
1 -1 10 176 176 176
1 0 10 170 170 170
0 0 10 187 187 187
0.5 -0.5 10 181 181 181
1 -2 5 128 128 128
2 -2 5 147 147 147
2 -1 5 119 119 119
1 -1 5 97 97 97
1.5 -1.5 5 123 123 123
1 -2 10 191 191 191
2 -2 10 192 192 192
2 -1 10 178 178 178
1 -1 10 176 176 176
1.5 -1.5 10 185 185 185
1 0 10 170 170 170
2 0 10 174 174 174
2 1 10 188 188 188
1 1 10 186 186 186
1.5 0.5 10 180 180 180
-1 1 9 156 156 156
0 1 9 152 152 152
0 2 9 173 173 173
-1 2 9 177 177 177
-0.5 1.5 9 164 164 164
0 -2 5 120 120 120
1 -2 5 128 128 128
1 -1 5 97 97 97
0 -1 5 92 92 92
0.5 -1.5 5 109 109 109
-2 0 10 208 208 208
-1 0 10 204 204 204
-1 1 10 206 206 206
-2 1 10 209 209 209
-1.5 0.5 10 207 207 207
-2 0 5 106 106 106
-1 0 5 84 84 84
-1 1 5 104 104 104
-2 1 5 125 125 125
-1.5 0.5 5 105 105 105
3 -2 7 181 181 181
3 -1 7 180 180 180
3 -1 8 185 185 185
3 -2 8 185 185 185
3 -1.5 7.5 183 183 183
2 -1 11 149 149 149
2 0 11 149 149 149
2 0 12 151 151 151
2 -1 12 152 152 152
2 -0.5 11.5 150 150 150
3 -2 8 185 185 185
3 -1 8 185 185 185
3 -1 9 189 189 189
3 -2 9 189 189 189
3 -1.5 8.5 187 187 187
2 -1 10 135 135 135
2 0 10 135 135 135
2 0 11 149 149 149
2 -1 11 149 149 149
2 -0.5 10.5 142 142 142
2 0 4 122 122 122
2 1 4 137 137 137
2 1 5 150 150 150
2 0 5 144 144 144
2 0.5 4.5 138 138 138
3 -1 2 149 149 149
3 0 2 149 149 149
3 0 3 157 157 157
3 -1 3 158 158 158
3 -0.5 2.5 153 153 153
3 0 7 181 181 181
3 1 7 181 181 181
3 1 8 186 186 186
3 0 8 185 185 185
3 0.5 7.5 183 183 183
3 -1 4 128 128 128
3 0 4 128 128 128
3 0 5 133 133 133
3 -1 5 133 133 133
3 -0.5 4.5 130 130 130
3 -1 8 185 185 185
3 0 8 185 185 185
3 0 9 189 189 189
3 -1 9 189 189 189
3 -0.5 8.5 187 187 187
2 -1 0 99 99 99
2 0 0 98 98 98
2 0 1 94 94 94
2 -1 1 95 95 95
2 -0.5 0.5 96 96 96
-1 -1 0 71 71 71
-1 0 0 68 68 68
-1 0 1 55 55 55
-1 -1 1 57 57 57
-1 -0.5 0.5 63 63 63
-1 -1 1 74 74 74
-1 0 1 71 71 71
-1 0 2 61 61 61
-1 -1 2 63 63 63
-1 -0.5 1.5 67 67 67
2 -1 1 122 122 122
2 0 1 120 120 120
2 0 2 112 112 112
2 -1 2 116 116 116
2 -0.5 1.5 117 117 117
1 1 8 121 121 121
1 2 8 140 140 140
1 2 9 149 149 149
1 1 9 133 133 133
1 1.5 8.5 136 136 136
2 -1 6 143 143 143
2 0 6 142 142 142
2 0 7 114 114 114
2 -1 7 114 114 114
2 -0.5 6.5 128 128 128
2 -2 2 131 131 131
2 -1 2 116 116 116
2 -1 3 121 121 121
2 -2 3 133 133 133
2 -1.5 2.5 125 125 125
2 0 3 87 87 87
2 1 3 100 100 100
2 1 4 107 107 107
2 0 4 95 95 95
2 0.5 3.5 97 97 97
3 0 8 185 185 185
3 1 8 186 186 186
3 1 9 189 189 189
3 0 9 189 189 189
3 0.5 8.5 187 187 187
2 -1 9 158 158 158
2 0 9 158 158 158
2 0 10 174 174 174
2 -1 10 174 174 174
2 -0.5 9.5 166 166 166
2 -1 7 114 114 114
2 0 7 114 114 114
2 0 8 74 74 74
2 -1 8 74 74 74
2 -0.5 7.5 94 94 94
1 -1 5 100 100 100
1 0 5 99 99 99
1 0 6 99 99 99
1 -1 6 100 100 100
1 -0.5 5.5 99 99 99
2 0 2 112 112 112
2 1 2 128 128 128
2 1 3 128 128 128
2 0 3 112 112 112
2 0.5 2.5 120 120 120
3 -1 3 123 123 123
3 0 3 123 123 123
3 0 4 128 128 128
3 -1 4 128 128 128
3 -0.5 3.5 125 125 125
2 -2 4 141 141 141
2 -1 4 129 129 129
2 -1 5 147 147 147
2 -2 5 154 154 154
2 -1.5 4.5 143 143 143
1 1 7 119 119 119
1 2 7 136 136 136
1 2 8 140 140 140
1 1 8 121 121 121
1 1.5 7.5 129 129 129
2 -2 9 164 164 164
2 -1 9 158 158 158
2 -1 10 174 174 174
2 -2 10 180 180 180
2 -1.5 9.5 169 169 169
2 -2 6 154 154 154
2 -1 6 143 143 143
2 -1 7 114 114 114
2 -2 7 145 145 145
2 -1.5 6.5 139 139 139
2 -2 3 104 104 104
2 -1 3 94 94 94
2 -1 4 100 100 100
2 -2 4 110 110 110
2 -1.5 3.5 102 102 102
2 0 9 158 158 158
2 1 9 161 161 161
2 1 10 179 179 179
2 0 10 174 174 174
2 0.5 9.5 168 168 168
2 0 6 142 142 142
2 1 6 150 150 150
2 1 7 140 140 140
2 0 7 114 114 114
2 0.5 6.5 137 137 137
2 -1 7 79 79 79
2 -1 8 64 64 64
3 -1 8 102 102 102
3 -1 7 102 102 102
2.5 -1 7.5 87 87 87
1 1 8 133 133 133
1 1 9 152 152 152
2 1 9 161 161 161
2 1 8 149 149 149
1.5 1 8.5 149 149 149
0 1 2 139 139 139
0 1 3 147 147 147
1 1 3 147 147 147
1 1 2 139 139 139
0.5 1 2.5 143 143 143
1 0 11 128 128 128
1 0 12 141 141 141
2 0 12 142 142 142
2 0 11 132 132 132
1.5 0 11.5 136 136 136
0 1 3 114 114 114
0 1 4 118 118 118
1 1 4 119 119 119
1 1 3 114 114 114
0.5 1 3.5 116 116 116
1 0 10 117 117 117
1 0 11 128 128 128
2 0 11 132 132 132
2 0 10 115 115 115
1.5 0 10.5 123 123 123
1 1 4 152 152 152
1 1 5 156 156 156
2 1 5 159 159 159
2 1 4 153 153 153
1.5 1 4.5 155 155 155
2 0 2 106 106 106
2 0 3 108 108 108
3 0 3 122 122 122
3 0 2 121 121 121
2.5 0 2.5 114 114 114
2 1 7 152 152 152
2 1 8 149 149 149
3 1 8 168 168 168
3 1 7 166 166 166
2.5 1 7.5 159 159 159
2 0 4 89 89 89
2 0 5 94 94 94
3 0 5 107 107 107
3 0 4 100 100 100
2.5 0 4.5 98 98 98
1 0 0 90 90 90
1 0 1 81 81 81
2 0 1 88 88 88
2 0 0 92 92 92
1.5 0 0.5 88 88 88
-2 0 0 92 92 92
-2 0 1 88 88 88
-1 0 1 81 81 81
-1 0 0 90 90 90
-1.5 0 0.5 88 88 88
-2 0 1 113 113 113
-2 0 2 108 108 108
-1 0 2 91 91 91
-1 0 1 104 104 104
-1.5 0 1.5 104 104 104
1 0 1 104 104 104
1 0 2 91 91 91
2 0 2 106 106 106
2 0 1 113 113 113
1.5 0 1.5 104 104 104
-1 1 3 115 115 115
-1 1 4 119 119 119
0 1 4 118 118 118
0 1 3 114 114 114
-0.5 1 3.5 117 117 117
0 1 9 155 155 155
0 1 10 167 167 167
1 1 10 170 170 170
1 1 9 152 152 152
0.5 1 9.5 161 161 161
0 2 8 174 174 174
0 2 9 178 178 178
1 2 9 178 178 178
1 2 8 175 175 175
0.5 2 8.5 176 176 176
1 1 7 137 137 137
1 1 8 133 133 133
2 1 8 149 149 149
2 1 7 152 152 152
1.5 1 7.5 143 143 143
-1 1 6 150 150 150
-1 1 7 139 139 139
0 1 7 130 130 130
0 1 6 143 143 143
-0.5 1 6.5 140 140 140
-3 1 8 167 167 167
-3 1 9 172 172 172
-2 1 9 162 162 162
-2 1 8 151 151 151
-2.5 1 8.5 163 163 163
-3 1 7 165 165 165
-3 1 8 167 167 167
-2 1 8 151 151 151
-2 1 7 153 153 153
-2.5 1 7.5 159 159 159
0 1 6 143 143 143
0 1 7 130 130 130
1 1 7 137 137 137
1 1 6 149 149 149
0.5 1 6.5 140 140 140
0 1 4 152 152 152
0 1 5 155 155 155
1 1 5 156 156 156
1 1 4 152 152 152
0.5 1 4.5 154 154 154
-3 0 4 102 102 102
-3 0 5 109 109 109
-2 0 5 96 96 96
-2 0 4 92 92 92
-2.5 0 4.5 100 100 100
1 1 3 114 114 114
1 1 4 119 119 119
2 1 4 119 119 119
2 1 3 114 114 114
1.5 1 3.5 117 117 117
-1 1 2 140 140 140
-1 1 3 147 147 147
0 1 3 147 147 147
0 1 2 139 139 139
-0.5 1 2.5 143 143 143
2 1 8 149 149 149
2 1 9 161 161 161
3 1 9 172 172 172
3 1 8 168 168 168
2.5 1 8.5 162 162 162
-1 1 4 153 153 153
-1 1 5 156 156 156
0 1 5 155 155 155
0 1 4 152 152 152
-0.5 1 4.5 154 154 154
-3 -1 7 105 105 105
-3 -1 8 106 106 106
-2 -1 8 67 67 67
-2 -1 7 83 83 83
-2.5 -1 7.5 90 90 90
0 0 5 101 101 101
0 0 6 101 101 101
1 0 6 104 104 104
1 0 5 104 104 104
0.5 0 5.5 103 103 103
1 1 2 139 139 139
1 1 3 147 147 147
2 1 3 147 147 147
2 1 2 139 139 139
1.5 1 2.5 143 143 143
-1 1 9 155 155 155
-1 1 10 171 171 171
0 1 10 167 167 167
0 1 9 155 155 155
-0.5 1 9.5 162 162 162
2 0 3 84 84 84
2 0 4 89 89 89
3 0 4 100 100 100
3 0 3 95 95 95
2.5 0 3.5 92 92 92
-3 0 2 123 123 123
-3 0 3 125 125 125
-2 0 3 112 112 112
-2 0 2 108 108 108
-2.5 0 2.5 117 117 117
0 2 7 171 171 171
0 2 8 174 174 174
1 2 8 175 175 175
1 2 7 171 171 171
0.5 2 7.5 173 173 173
1 1 9 152 152 152
1 1 10 170 170 170
2 1 10 175 175 175
2 1 9 161 161 161
1.5 1 9.5 164 164 164
-1 2 8 174 174 174
-1 2 9 178 178 178
0 2 9 178 178 178
0 2 8 174 174 174
-0.5 2 8.5 176 176 176
-2 1 2 140 140 140
-2 1 3 148 148 148
-1 1 3 147 147 147
-1 1 2 140 140 140
-1.5 1 2.5 144 144 144
-1 0 5 106 106 106
-1 0 6 106 106 106
0 0 6 101 101 101
0 0 5 101 101 101
-0.5 0 5.5 103 103 103
-2 1 3 115 115 115
-2 1 4 120 120 120
-1 1 4 119 119 119
-1 1 3 115 115 115
-1.5 1 3.5 117 117 117
-1 2 7 171 171 171
-1 2 8 174 174 174
0 2 8 174 174 174
0 2 7 171 171 171
-0.5 2 7.5 173 173 173
1 1 6 149 149 149
1 1 7 137 137 137
2 1 7 152 152 152
2 1 6 159 159 159
1.5 1 6.5 149 149 149
-2 1 9 162 162 162
-2 1 10 175 175 175
-1 1 10 171 171 171
-1 1 9 155 155 155
-1.5 1 9.5 166 166 166
-2 1 8 151 151 151
-2 1 9 162 162 162
-1 1 9 155 155 155
-1 1 8 137 137 137
-1.5 1 8.5 151 151 151
-2 1 7 153 153 153
-2 1 8 151 151 151
-1 1 8 137 137 137
-1 1 7 139 139 139
-1.5 1 7.5 145 145 145
-2 1 6 159 159 159
-2 1 7 153 153 153
-1 1 7 139 139 139
-1 1 6 150 150 150
-1.5 1 6.5 150 150 150
-3 0 3 98 98 98
-3 0 4 102 102 102
-2 0 4 92 92 92
-2 0 3 87 87 87
-2.5 0 3.5 95 95 95
-2 1 4 154 154 154
-2 1 5 158 158 158
-1 1 5 156 156 156
-1 1 4 153 153 153
-1.5 1 4.5 155 155 155
2 -2 7 62 62 62
2 -1 7 58 58 58
3 -1 7 61 61 61
3 -2 7 66 66 66
2.5 -1.5 7 62 62 62
0 0 2 30 30 30
0 1 2 31 31 31
1 1 2 31 31 31
1 0 2 30 30 30
0.5 0.5 2 31 31 31
2 -1 2 31 31 31
2 0 2 31 31 31
3 0 2 32 32 32
3 -1 2 32 32 32
2.5 -0.5 2 32 32 32
-1 -2 2 32 32 32
-1 -1 2 31 31 31
0 -1 2 30 30 30
0 -2 2 32 32 32
-0.5 -1.5 2 31 31 31
2 0 7 57 57 57
2 1 7 61 61 61
3 1 7 65 65 65
3 0 7 61 61 61
2.5 0.5 7 61 61 61
2 -1 8 41 41 41
2 0 8 41 41 41
3 0 8 58 58 58
3 -1 8 59 59 59
2.5 -0.5 8 50 50 50
1 -1 0 20 20 20
1 0 0 20 20 20
2 0 0 20 20 20
2 -1 0 20 20 20
1.5 -0.5 0 20 20 20
-2 -1 0 19 19 19
-2 0 0 19 19 19
-1 0 0 19 19 19
-1 -1 0 20 20 20
-1.5 -0.5 0 19 19 19
-2 -2 2 32 32 32
-2 -1 2 32 32 32
-1 -1 2 31 31 31
-1 -2 2 32 32 32
-1.5 -1.5 2 32 32 32
-2 -1 6 55 55 55
-2 0 6 54 54 54
-1 0 6 50 50 50
-1 -1 6 51 51 51
-1.5 -0.5 6 53 53 53
1 -1 6 52 52 52
1 0 6 52 52 52
2 0 6 57 57 57
2 -1 6 57 57 57
1.5 -0.5 6 54 54 54
-1 0 6 50 50 50
-1 1 6 52 52 52
0 1 6 50 50 50
0 0 6 47 47 47
-0.5 0.5 6 50 50 50
-3 0 7 59 59 59
-3 1 7 63 63 63
-2 1 7 59 59 59
-2 0 7 54 54 54
-2.5 0.5 7 59 59 59
0 0 6 47 47 47
0 1 6 50 50 50
1 1 6 53 53 53
1 0 6 52 52 52
0.5 0.5 6 51 51 51
1 -2 2 32 32 32
1 -1 2 30 30 30
2 -1 2 31 31 31
2 -2 2 32 32 32
1.5 -1.5 2 31 31 31
0 -2 2 32 32 32
0 -1 2 30 30 30
1 -1 2 30 30 30
1 -2 2 32 32 32
0.5 -1.5 2 31 31 31
-3 -1 8 55 55 55
-3 0 8 55 55 55
-2 0 8 40 40 40
-2 -1 8 40 40 40
-2.5 -0.5 8 47 47 47
-1 0 2 31 31 31
-1 1 2 31 31 31
0 1 2 31 31 31
0 0 2 30 30 30
-0.5 0.5 2 31 31 31
-3 -2 7 64 64 64
-3 -1 7 60 60 60
-2 -1 7 55 55 55
-2 -2 7 59 59 59
-2.5 -1.5 7 59 59 59
-1 -2 6 53 53 53
-1 -1 6 51 51 51
0 -1 6 49 49 49
0 -2 6 51 51 51
-0.5 -1.5 6 51 51 51
1 0 2 30 30 30
1 1 2 31 31 31
2 1 2 31 31 31
2 0 2 31 31 31
1.5 0.5 2 31 31 31
-3 -1 2 33 33 33
-3 0 2 33 33 33
-2 0 2 32 32 32
-2 -1 2 32 32 32
-2.5 -0.5 2 32 32 32
0 1 7 54 54 54
0 2 7 58 58 58
1 2 7 60 60 60
1 1 7 57 57 57
0.5 1.5 7 57 57 57
1 -2 6 53 53 53
1 -1 6 52 52 52
2 -1 6 57 57 57
2 -2 6 58 58 58
1.5 -1.5 6 55 55 55
-2 -2 6 56 56 56
-2 -1 6 55 55 55
-1 -1 6 51 51 51
-1 -2 6 53 53 53
-1.5 -1.5 6 54 54 54
0 -1 2 21 21 21
0 0 2 21 21 21
1 0 2 21 21 21
1 -1 2 21 21 21
0.5 -0.5 2 21 21 21
0 -2 6 51 51 51
0 -1 6 49 49 49
1 -1 6 52 52 52
1 -2 6 53 53 53
0.5 -1.5 6 51 51 51
-1 -1 2 22 22 22
-1 0 2 22 22 22
0 0 2 21 21 21
0 -1 2 21 21 21
-0.5 -0.5 2 22 22 22
-2 0 2 32 32 32
-2 1 2 32 32 32
-1 1 2 31 31 31
-1 0 2 31 31 31
-1.5 0.5 2 31 31 31
-1 1 7 56 56 56
-1 2 7 59 59 59
0 2 7 58 58 58
0 1 7 54 54 54
-0.5 1.5 7 57 57 57
1 0 6 52 52 52
1 1 6 53 53 53
2 1 6 57 57 57
2 0 6 57 57 57
1.5 0.5 6 55 55 55
-2 0 6 54 54 54
-2 1 6 55 55 55
-1 1 6 52 52 52
-1 0 6 50 50 50
-1.5 0.5 6 53 53 53
1 -1 11 121 121 121
1 -1 12 136 136 136
1 0 12 136 136 136
1 0 11 120 120 120
1 -0.5 11.5 128 128 128
1 -1 10 109 109 109
1 -1 11 121 121 121
1 0 11 120 120 120
1 0 10 109 109 109
1 -0.5 10.5 115 115 115
-2 -2 9 159 159 159
-2 -2 10 174 174 174
-2 -1 10 169 169 169
-2 -1 9 156 156 156
-2 -1.5 9.5 165 165 165
-2 -2 4 137 137 137
-2 -2 5 149 149 149
-2 -1 5 144 144 144
-2 -1 4 124 124 124
-2 -1.5 4.5 138 138 138
1 -1 0 70 70 70
1 -1 1 58 58 58
1 0 1 58 58 58
1 0 0 70 70 70
1 -0.5 0.5 64 64 64
-2 -1 0 97 97 97
-2 -1 1 94 94 94
-2 0 1 95 95 95
-2 0 0 97 97 97
-2 -0.5 0.5 96 96 96
-2 -2 2 128 128 128
-2 -2 3 129 129 129
-2 -1 3 116 116 116
-2 -1 2 114 114 114
-2 -1.5 2.5 122 122 122
-2 -1 1 121 121 121
-2 -1 2 114 114 114
-2 0 2 115 115 115
-2 0 1 122 122 122
-2 -0.5 1.5 118 118 118
1 -1 1 74 74 74
1 -1 2 65 65 65
1 0 2 64 64 64
1 0 1 74 74 74
1 -0.5 1.5 69 69 69
-2 -1 6 143 143 143
-2 -1 7 114 114 114
-2 0 7 114 114 114
-2 0 6 143 143 143
-2 -0.5 6.5 129 129 129
-3 0 8 179 179 179
-3 0 9 182 182 182
-3 1 9 182 182 182
-3 1 8 179 179 179
-3 0.5 8.5 181 181 181
-3 0 7 176 176 176
-3 0 8 179 179 179
-3 1 8 179 179 179
-3 1 7 176 176 176
-3 0.5 7.5 177 177 177
-3 -1 4 126 126 126
-3 -1 5 131 131 131
-3 0 5 131 131 131
-3 0 4 126 126 126
-3 -0.5 4.5 128 128 128
-3 -1 8 179 179 179
-3 -1 9 181 181 181
-3 0 9 182 182 182
-3 0 8 179 179 179
-3 -0.5 8.5 180 180 180
-2 -1 7 114 114 114
-2 -1 8 74 74 74
-2 0 8 74 74 74
-2 0 7 114 114 114
-2 -0.5 7.5 94 94 94
-2 -1 9 156 156 156
-2 -1 10 169 169 169
-2 0 10 169 169 169
-2 0 9 156 156 156
-2 -0.5 9.5 163 163 163
-3 -2 8 179 179 179
-3 -2 9 181 181 181
-3 -1 9 181 181 181
-3 -1 8 179 179 179
-3 -1.5 8.5 180 180 180
-3 -2 7 176 176 176
-3 -2 8 179 179 179
-3 -1 8 179 179 179
-3 -1 7 176 176 176
-3 -1.5 7.5 178 178 178
-2 -2 3 100 100 100
-2 -2 4 106 106 106
-2 -1 4 96 96 96
-2 -1 3 90 90 90
-2 -1.5 3.5 98 98 98
-3 -1 2 148 148 148
-3 -1 3 155 155 155
-3 0 3 155 155 155
-3 0 2 147 147 147
-3 -0.5 2.5 151 151 151
-2 -2 6 151 151 151
-2 -2 7 141 141 141
-2 -1 7 114 114 114
-2 -1 6 143 143 143
-2 -1.5 6.5 137 137 137
-1 1 8 124 124 124
-1 1 9 133 133 133
-1 2 9 148 148 148
-1 2 8 140 140 140
-1 1.5 8.5 136 136 136
-2 0 2 115 115 115
-2 0 3 117 117 117
-2 1 3 130 130 130
-2 1 2 129 129 129
-2 0.5 2.5 123 123 123
-1 -1 5 101 101 101
-1 -1 6 101 101 101
-1 0 6 101 101 101
-1 0 5 101 101 101
-1 -0.5 5.5 101 101 101
-2 0 3 91 91 91
-2 0 4 97 97 97
-2 1 4 107 107 107
-2 1 3 101 101 101
-2 0.5 3.5 99 99 99
-1 1 7 124 124 124
-1 1 8 124 124 124
-1 2 8 140 140 140
-1 2 7 139 139 139
-1 1.5 7.5 132 132 132
-2 0 9 156 156 156
-2 0 10 169 169 169
-2 1 10 174 174 174
-2 1 9 158 158 158
-2 0.5 9.5 164 164 164
-2 0 6 143 143 143
-2 0 7 114 114 114
-2 1 7 142 142 142
-2 1 6 151 151 151
-2 0.5 6.5 138 138 138
-3 -1 3 121 121 121
-3 -1 4 126 126 126
-3 0 4 126 126 126
-3 0 3 121 121 121
-3 -0.5 3.5 123 123 123
-2 0 4 124 124 124
-2 0 5 144 144 144
-2 1 5 150 150 150
-2 1 4 137 137 137
-2 0.5 4.5 139 139 139
2 -2 7 180 180 180
3 -2 7 181 181 181
3 -2 8 185 185 185
2 -2 8 185 185 185
2.5 -2 7.5 183 183 183
1 -2 8 184 184 184
2 -2 8 185 185 185
2 -2 9 188 188 188
1 -2 9 188 188 188
1.5 -2 8.5 186 186 186
1 -1 11 136 136 136
2 -1 11 140 140 140
2 -1 12 150 150 150
1 -1 12 150 150 150
1.5 -1 11.5 144 144 144
-1 -2 3 123 123 123
0 -2 3 123 123 123
0 -2 4 128 128 128
-1 -2 4 128 128 128
-0.5 -2 3.5 126 126 126
2 -2 8 185 185 185
3 -2 8 185 185 185
3 -2 9 188 188 188
2 -2 9 188 188 188
2.5 -2 8.5 186 186 186
1 -1 10 123 123 123
2 -1 10 123 123 123
2 -1 11 140 140 140
1 -1 11 136 136 136
1.5 -1 10.5 131 131 131
2 -1 2 118 118 118
3 -1 2 135 135 135
3 -1 3 136 136 136
2 -1 3 125 125 125
2.5 -1 2.5 128 128 128
-1 -2 9 187 187 187
0 -2 9 187 187 187
0 -2 10 190 190 190
-1 -2 10 191 191 191
-0.5 -2 9.5 189 189 189
-1 -2 2 151 151 151
0 -2 2 151 151 151
0 -2 3 158 158 158
-1 -2 3 158 158 158
-0.5 -2 2.5 155 155 155
-2 -2 9 187 187 187
-1 -2 9 187 187 187
-1 -2 10 191 191 191
-2 -2 10 190 190 190
-1.5 -2 9.5 189 189 189
2 0 7 85 85 85
3 0 7 111 111 111
3 0 8 113 113 113
2 0 8 66 66 66
2.5 0 7.5 94 94 94
-2 -2 4 165 165 165
-1 -2 4 165 165 165
-1 -2 5 171 171 171
-2 -2 5 172 172 172
-1.5 -2 4.5 168 168 168
2 -1 4 101 101 101
3 -1 4 110 110 110
3 -1 5 116 116 116
2 -1 5 100 100 100
2.5 -1 4.5 107 107 107
0 -2 9 187 187 187
1 -2 9 188 188 188
1 -2 10 190 190 190
0 -2 10 190 190 190
0.5 -2 9.5 189 189 189
1 -1 0 95 95 95
2 -1 0 99 99 99
2 -1 1 95 95 95
1 -1 1 84 84 84
1.5 -1 0.5 93 93 93
-2 -1 0 96 96 96
-1 -1 0 94 94 94
-1 -1 1 83 83 83
-2 -1 1 91 91 91
-1.5 -1 0.5 91 91 91
-2 -2 2 152 152 152
-1 -2 2 151 151 151
-1 -2 3 158 158 158
-2 -2 3 159 159 159
-1.5 -2 2.5 155 155 155
-2 -1 1 117 117 117
-1 -1 1 107 107 107
-1 -1 2 95 95 95
-2 -1 2 111 111 111
-1.5 -1 1.5 107 107 107
1 -1 1 108 108 108
2 -1 1 122 122 122
2 -1 2 118 118 118
1 -1 2 95 95 95
1.5 -1 1.5 111 111 111
-3 0 7 104 104 104
-2 0 7 80 80 80
-2 0 8 64 64 64
-3 0 8 108 108 108
-2.5 0 7.5 89 89 89
-1 -2 7 180 180 180
0 -2 7 180 180 180
0 -2 8 183 183 183
-1 -2 8 183 183 183
-0.5 -2 7.5 182 182 182
-2 -2 8 184 184 184
-1 -2 8 183 183 183
-1 -2 9 187 187 187
-2 -2 9 187 187 187
-1.5 -2 8.5 185 185 185
-3 -1 4 107 107 107
-2 -1 4 94 94 94
-2 -1 5 97 97 97
-3 -1 5 113 113 113
-2.5 -1 4.5 102 102 102
1 -2 2 151 151 151
2 -2 2 151 151 151
2 -2 3 158 158 158
1 -2 3 158 158 158
1.5 -2 2.5 155 155 155
0 -2 2 151 151 151
1 -2 2 151 151 151
1 -2 3 158 158 158
0 -2 3 158 158 158
0.5 -2 2.5 154 154 154
-2 -2 7 193 116 76
-1 -2 7 193 116 76
-1 -2 8 196 118 77
-2 -2 8 196 118 78
-1.5 -2 7.5 194 117 77
0 -2 7 180 180 180
1 -2 7 180 180 180
1 -2 8 184 184 184
0 -2 8 183 183 183
0.5 -2 7.5 182 182 182
1 -2 7 193 116 76
2 -2 7 193 116 76
2 -2 8 197 119 78
1 -2 8 196 118 78
1.5 -2 7.5 195 117 77
-3 -2 8 184 184 184
-2 -2 8 184 184 184
-2 -2 9 187 187 187
-3 -2 9 188 188 188
-2.5 -2 8.5 186 186 186
-3 -2 7 181 181 181
-2 -2 7 180 180 180
-2 -2 8 184 184 184
-3 -2 8 184 184 184
-2.5 -2 7.5 182 182 182
0 -1 5 98 98 98
1 -1 5 101 101 101
1 -1 6 101 101 101
0 -1 6 98 98 98
0.5 -1 5.5 100 100 100
-1 -2 6 176 176 176
0 -2 6 176 176 176
0 -2 7 180 180 180
-1 -2 7 180 180 180
-0.5 -2 6.5 178 178 178
-1 -2 4 165 165 165
0 -2 4 164 164 164
0 -2 5 171 171 171
-1 -2 5 171 171 171
-0.5 -2 4.5 168 168 168
0 -2 3 123 123 123
1 -2 3 123 123 123
1 -2 4 128 128 128
0 -2 4 128 128 128
0.5 -2 3.5 125 125 125
2 -1 3 97 97 97
3 -1 3 106 106 106
3 -1 4 110 110 110
2 -1 4 101 101 101
2.5 -1 3.5 104 104 104
0 -2 8 183 183 183
1 -2 8 184 184 184
1 -2 9 188 188 188
0 -2 9 187 187 187
0.5 -2 8.5 185 185 185
-2 -2 3 124 124 124
-1 -2 3 123 123 123
-1 -2 4 128 128 128
-2 -2 4 129 129 129
-1.5 -2 3.5 126 126 126
1 -2 4 165 165 165
2 -2 4 165 165 165
2 -2 5 171 171 171
1 -2 5 171 171 171
1.5 -2 4.5 168 168 168
-3 -1 2 130 130 130
-2 -1 2 111 111 111
-2 -1 3 114 114 114
-3 -1 3 131 131 131
-2.5 -1 2.5 122 122 122
1 -2 9 188 188 188
2 -2 9 188 188 188
2 -2 10 190 190 190
1 -2 10 190 190 190
1.5 -2 9.5 189 189 189
1 -2 6 176 176 176
2 -2 6 176 176 176
2 -2 7 180 180 180
1 -2 7 180 180 180
1.5 -2 6.5 178 178 178
-1 -2 8 183 183 183
0 -2 8 183 183 183
0 -2 9 187 187 187
-1 -2 9 187 187 187
-0.5 -2 8.5 185 185 185
1 -2 3 123 123 123
2 -2 3 123 123 123
2 -2 4 129 129 129
1 -2 4 128 128 128
1.5 -2 3.5 126 126 126
-2 -2 6 177 177 177
-1 -2 6 176 176 176
-1 -2 7 180 180 180
-2 -2 7 180 180 180
-1.5 -2 6.5 178 178 178
0 -2 6 176 176 176
1 -2 6 176 176 176
1 -2 7 180 180 180
0 -2 7 180 180 180
0.5 -2 6.5 178 178 178
-1 -1 5 103 103 103
0 -1 5 98 98 98
0 -1 6 98 98 98
-1 -1 6 103 103 103
-0.5 -1 5.5 101 101 101
0 -2 4 164 164 164
1 -2 4 165 165 165
1 -2 5 171 171 171
0 -2 5 171 171 171
0.5 -2 4.5 168 168 168
-3 -1 3 102 102 102
-2 -1 3 89 89 89
-2 -1 4 94 94 94
-3 -1 4 107 107 107
-2.5 -1 3.5 98 98 98
3 4 0 1
3 4 1 2
3 4 2 3
3 4 3 0
3 9 5 6
3 9 6 7
3 9 7 8
3 9 8 5
3 14 10 11
3 14 11 12
3 14 12 13
3 14 13 10
3 19 15 16
3 19 16 17
3 19 17 18
3 19 18 15
3 24 20 21
3 24 21 22
3 24 22 23
3 24 23 20
3 29 25 26
3 29 26 27
3 29 27 28
3 29 28 25
3 34 30 31
3 34 31 32
3 34 32 33
3 34 33 30
3 39 35 36
3 39 36 37
3 39 37 38
3 39 38 35
3 44 40 41
3 44 41 42
3 44 42 43
3 44 43 40
3 49 45 46
3 49 46 47
3 49 47 48
3 49 48 45
3 54 50 51
3 54 51 52
3 54 52 53
3 54 53 50
3 59 55 56
3 59 56 57
3 59 57 58
3 59 58 55
3 64 60 61
3 64 61 62
3 64 62 63
3 64 63 60
3 69 65 66
3 69 66 67
3 69 67 68
3 69 68 65
3 74 70 71
3 74 71 72
3 74 72 73
3 74 73 70
3 79 75 76
3 79 76 77
3 79 77 78
3 79 78 75
3 84 80 81
3 84 81 82
3 84 82 83
3 84 83 80
3 89 85 86
3 89 86 87
3 89 87 88
3 89 88 85
3 94 90 91
3 94 91 92
3 94 92 93
3 94 93 90
3 99 95 96
3 99 96 97
3 99 97 98
3 99 98 95
3 104 100 101
3 104 101 102
3 104 102 103
3 104 103 100
3 109 105 106
3 109 106 107
3 109 107 108
3 109 108 105
3 114 110 111
3 114 111 112
3 114 112 113
3 114 113 110
3 119 115 116
3 119 116 117
3 119 117 118
3 119 118 115
3 124 120 121
3 124 121 122
3 124 122 123
3 124 123 120
3 129 125 126
3 129 126 127
3 129 127 128
3 129 128 125
3 134 130 131
3 134 131 132
3 134 132 133
3 134 133 130
3 139 135 136
3 139 136 137
3 139 137 138
3 139 138 135
3 144 140 141
3 144 141 142
3 144 142 143
3 144 143 140
3 149 145 146
3 149 146 147
3 149 147 148
3 149 148 145
3 154 150 151
3 154 151 152
3 154 152 153
3 154 153 150
3 159 155 156
3 159 156 157
3 159 157 158
3 159 158 155
3 164 160 161
3 164 161 162
3 164 162 163
3 164 163 160
3 169 165 166
3 169 166 167
3 169 167 168
3 169 168 165
3 174 170 171
3 174 171 172
3 174 172 173
3 174 173 170
3 179 175 176
3 179 176 177
3 179 177 178
3 179 178 175
3 184 180 181
3 184 181 182
3 184 182 183
3 184 183 180
3 189 185 186
3 189 186 187
3 189 187 188
3 189 188 185
3 194 190 191
3 194 191 192
3 194 192 193
3 194 193 190
3 199 195 196
3 199 196 197
3 199 197 198
3 199 198 195
3 204 200 201
3 204 201 202
3 204 202 203
3 204 203 200
3 209 205 206
3 209 206 207
3 209 207 208
3 209 208 205
3 214 210 211
3 214 211 212
3 214 212 213
3 214 213 210
3 219 215 216
3 219 216 217
3 219 217 218
3 219 218 215
3 224 220 221
3 224 221 222
3 224 222 223
3 224 223 220
3 229 225 226
3 229 226 227
3 229 227 228
3 229 228 225
3 234 230 231
3 234 231 232
3 234 232 233
3 234 233 230
3 239 235 236
3 239 236 237
3 239 237 238
3 239 238 235
3 244 240 241
3 244 241 242
3 244 242 243
3 244 243 240
3 249 245 246
3 249 246 247
3 249 247 248
3 249 248 245
3 254 250 251
3 254 251 252
3 254 252 253
3 254 253 250
3 259 255 256
3 259 256 257
3 259 257 258
3 259 258 255
3 264 260 261
3 264 261 262
3 264 262 263
3 264 263 260
3 269 265 266
3 269 266 267
3 269 267 268
3 269 268 265
3 274 270 271
3 274 271 272
3 274 272 273
3 274 273 270
3 279 275 276
3 279 276 277
3 279 277 278
3 279 278 275
3 284 280 281
3 284 281 282
3 284 282 283
3 284 283 280
3 289 285 286
3 289 286 287
3 289 287 288
3 289 288 285
3 294 290 291
3 294 291 292
3 294 292 293
3 294 293 290
3 299 295 296
3 299 296 297
3 299 297 298
3 299 298 295
3 304 300 301
3 304 301 302
3 304 302 303
3 304 303 300
3 309 305 306
3 309 306 307
3 309 307 308
3 309 308 305
3 314 310 311
3 314 311 312
3 314 312 313
3 314 313 310
3 319 315 316
3 319 316 317
3 319 317 318
3 319 318 315
3 324 320 321
3 324 321 322
3 324 322 323
3 324 323 320
3 329 325 326
3 329 326 327
3 329 327 328
3 329 328 325
3 334 330 331
3 334 331 332
3 334 332 333
3 334 333 330
3 339 335 336
3 339 336 337
3 339 337 338
3 339 338 335
3 344 340 341
3 344 341 342
3 344 342 343
3 344 343 340
3 349 345 346
3 349 346 347
3 349 347 348
3 349 348 345
3 354 350 351
3 354 351 352
3 354 352 353
3 354 353 350
3 359 355 356
3 359 356 357
3 359 357 358
3 359 358 355
3 364 360 361
3 364 361 362
3 364 362 363
3 364 363 360
3 369 365 366
3 369 366 367
3 369 367 368
3 369 368 365
3 374 370 371
3 374 371 372
3 374 372 373
3 374 373 370
3 379 375 376
3 379 376 377
3 379 377 378
3 379 378 375
3 384 380 381
3 384 381 382
3 384 382 383
3 384 383 380
3 389 385 386
3 389 386 387
3 389 387 388
3 389 388 385
3 394 390 391
3 394 391 392
3 394 392 393
3 394 393 390
3 399 395 396
3 399 396 397
3 399 397 398
3 399 398 395
3 404 400 401
3 404 401 402
3 404 402 403
3 404 403 400
3 409 405 406
3 409 406 407
3 409 407 408
3 409 408 405
3 414 410 411
3 414 411 412
3 414 412 413
3 414 413 410
3 419 415 416
3 419 416 417
3 419 417 418
3 419 418 415
3 424 420 421
3 424 421 422
3 424 422 423
3 424 423 420
3 429 425 426
3 429 426 427
3 429 427 428
3 429 428 425
3 434 430 431
3 434 431 432
3 434 432 433
3 434 433 430
3 439 435 436
3 439 436 437
3 439 437 438
3 439 438 435
3 444 440 441
3 444 441 442
3 444 442 443
3 444 443 440
3 449 445 446
3 449 446 447
3 449 447 448
3 449 448 445
3 454 450 451
3 454 451 452
3 454 452 453
3 454 453 450
3 459 455 456
3 459 456 457
3 459 457 458
3 459 458 455
3 464 460 461
3 464 461 462
3 464 462 463
3 464 463 460
3 469 465 466
3 469 466 467
3 469 467 468
3 469 468 465
3 474 470 471
3 474 471 472
3 474 472 473
3 474 473 470
3 479 475 476
3 479 476 477
3 479 477 478
3 479 478 475
3 484 480 481
3 484 481 482
3 484 482 483
3 484 483 480
3 489 485 486
3 489 486 487
3 489 487 488
3 489 488 485
3 494 490 491
3 494 491 492
3 494 492 493
3 494 493 490
3 499 495 496
3 499 496 497
3 499 497 498
3 499 498 495
3 504 500 501
3 504 501 502
3 504 502 503
3 504 503 500
3 509 505 506
3 509 506 507
3 509 507 508
3 509 508 505
3 514 510 511
3 514 511 512
3 514 512 513
3 514 513 510
3 519 515 516
3 519 516 517
3 519 517 518
3 519 518 515
3 524 520 521
3 524 521 522
3 524 522 523
3 524 523 520
3 529 525 526
3 529 526 527
3 529 527 528
3 529 528 525
3 534 530 531
3 534 531 532
3 534 532 533
3 534 533 530
3 539 535 536
3 539 536 537
3 539 537 538
3 539 538 535
3 544 540 541
3 544 541 542
3 544 542 543
3 544 543 540
3 549 545 546
3 549 546 547
3 549 547 548
3 549 548 545
3 554 550 551
3 554 551 552
3 554 552 553
3 554 553 550
3 559 555 556
3 559 556 557
3 559 557 558
3 559 558 555
3 564 560 561
3 564 561 562
3 564 562 563
3 564 563 560
3 569 565 566
3 569 566 567
3 569 567 568
3 569 568 565
3 574 570 571
3 574 571 572
3 574 572 573
3 574 573 570
3 579 575 576
3 579 576 577
3 579 577 578
3 579 578 575
3 584 580 581
3 584 581 582
3 584 582 583
3 584 583 580
3 589 585 586
3 589 586 587
3 589 587 588
3 589 588 585
3 594 590 591
3 594 591 592
3 594 592 593
3 594 593 590
3 599 595 596
3 599 596 597
3 599 597 598
3 599 598 595
3 604 600 601
3 604 601 602
3 604 602 603
3 604 603 600
3 609 605 606
3 609 606 607
3 609 607 608
3 609 608 605
3 614 610 611
3 614 611 612
3 614 612 613
3 614 613 610
3 619 615 616
3 619 616 617
3 619 617 618
3 619 618 615
3 624 620 621
3 624 621 622
3 624 622 623
3 624 623 620
3 629 625 626
3 629 626 627
3 629 627 628
3 629 628 625
3 634 630 631
3 634 631 632
3 634 632 633
3 634 633 630
3 639 635 636
3 639 636 637
3 639 637 638
3 639 638 635
3 644 640 641
3 644 641 642
3 644 642 643
3 644 643 640
3 649 645 646
3 649 646 647
3 649 647 648
3 649 648 645
3 654 650 651
3 654 651 652
3 654 652 653
3 654 653 650
3 659 655 656
3 659 656 657
3 659 657 658
3 659 658 655
3 664 660 661
3 664 661 662
3 664 662 663
3 664 663 660
3 669 665 666
3 669 666 667
3 669 667 668
3 669 668 665
3 674 670 671
3 674 671 672
3 674 672 673
3 674 673 670
3 679 675 676
3 679 676 677
3 679 677 678
3 679 678 675
3 684 680 681
3 684 681 682
3 684 682 683
3 684 683 680
3 689 685 686
3 689 686 687
3 689 687 688
3 689 688 685
3 694 690 691
3 694 691 692
3 694 692 693
3 694 693 690
3 699 695 696
3 699 696 697
3 699 697 698
3 699 698 695
3 704 700 701
3 704 701 702
3 704 702 703
3 704 703 700
3 709 705 706
3 709 706 707
3 709 707 708
3 709 708 705
3 714 710 711
3 714 711 712
3 714 712 713
3 714 713 710
3 719 715 716
3 719 716 717
3 719 717 718
3 719 718 715
3 724 720 721
3 724 721 722
3 724 722 723
3 724 723 720
3 729 725 726
3 729 726 727
3 729 727 728
3 729 728 725
3 734 730 731
3 734 731 732
3 734 732 733
3 734 733 730
3 739 735 736
3 739 736 737
3 739 737 738
3 739 738 735
3 744 740 741
3 744 741 742
3 744 742 743
3 744 743 740
3 749 745 746
3 749 746 747
3 749 747 748
3 749 748 745
3 754 750 751
3 754 751 752
3 754 752 753
3 754 753 750
3 759 755 756
3 759 756 757
3 759 757 758
3 759 758 755
3 764 760 761
3 764 761 762
3 764 762 763
3 764 763 760
3 769 765 766
3 769 766 767
3 769 767 768
3 769 768 765
3 774 770 771
3 774 771 772
3 774 772 773
3 774 773 770
3 779 775 776
3 779 776 777
3 779 777 778
3 779 778 775
3 784 780 781
3 784 781 782
3 784 782 783
3 784 783 780
3 789 785 786
3 789 786 787
3 789 787 788
3 789 788 785
3 794 790 791
3 794 791 792
3 794 792 793
3 794 793 790
3 799 795 796
3 799 796 797
3 799 797 798
3 799 798 795
3 804 800 801
3 804 801 802
3 804 802 803
3 804 803 800
3 809 805 806
3 809 806 807
3 809 807 808
3 809 808 805
3 814 810 811
3 814 811 812
3 814 812 813
3 814 813 810
3 819 815 816
3 819 816 817
3 819 817 818
3 819 818 815
3 824 820 821
3 824 821 822
3 824 822 823
3 824 823 820
3 829 825 826
3 829 826 827
3 829 827 828
3 829 828 825
3 834 830 831
3 834 831 832
3 834 832 833
3 834 833 830
3 839 835 836
3 839 836 837
3 839 837 838
3 839 838 835
3 844 840 841
3 844 841 842
3 844 842 843
3 844 843 840
3 849 845 846
3 849 846 847
3 849 847 848
3 849 848 845
3 854 850 851
3 854 851 852
3 854 852 853
3 854 853 850
3 859 855 856
3 859 856 857
3 859 857 858
3 859 858 855
3 864 860 861
3 864 861 862
3 864 862 863
3 864 863 860
3 869 865 866
3 869 866 867
3 869 867 868
3 869 868 865
3 874 870 871
3 874 871 872
3 874 872 873
3 874 873 870
3 879 875 876
3 879 876 877
3 879 877 878
3 879 878 875
3 884 880 881
3 884 881 882
3 884 882 883
3 884 883 880
3 889 885 886
3 889 886 887
3 889 887 888
3 889 888 885
3 894 890 891
3 894 891 892
3 894 892 893
3 894 893 890
3 899 895 896
3 899 896 897
3 899 897 898
3 899 898 895
3 904 900 901
3 904 901 902
3 904 902 903
3 904 903 900
3 909 905 906
3 909 906 907
3 909 907 908
3 909 908 905
3 914 910 911
3 914 911 912
3 914 912 913
3 914 913 910
3 919 915 916
3 919 916 917
3 919 917 918
3 919 918 915
3 924 920 921
3 924 921 922
3 924 922 923
3 924 923 920
3 929 925 926
3 929 926 927
3 929 927 928
3 929 928 925
3 934 930 931
3 934 931 932
3 934 932 933
3 934 933 930
3 939 935 936
3 939 936 937
3 939 937 938
3 939 938 935
3 944 940 941
3 944 941 942
3 944 942 943
3 944 943 940
3 949 945 946
3 949 946 947
3 949 947 948
3 949 948 945
3 954 950 951
3 954 951 952
3 954 952 953
3 954 953 950
3 959 955 956
3 959 956 957
3 959 957 958
3 959 958 955
3 964 960 961
3 964 961 962
3 964 962 963
3 964 963 960
3 969 965 966
3 969 966 967
3 969 967 968
3 969 968 965
3 974 970 971
3 974 971 972
3 974 972 973
3 974 973 970
3 979 975 976
3 979 976 977
3 979 977 978
3 979 978 975
3 984 980 981
3 984 981 982
3 984 982 983
3 984 983 980
3 989 985 986
3 989 986 987
3 989 987 988
3 989 988 985
3 994 990 991
3 994 991 992
3 994 992 993
3 994 993 990
3 999 995 996
3 999 996 997
3 999 997 998
3 999 998 995
3 1004 1000 1001
3 1004 1001 1002
3 1004 1002 1003
3 1004 1003 1000
3 1009 1005 1006
3 1009 1006 1007
3 1009 1007 1008
3 1009 1008 1005
3 1014 1010 1011
3 1014 1011 1012
3 1014 1012 1013
3 1014 1013 1010
3 1019 1015 1016
3 1019 1016 1017
3 1019 1017 1018
3 1019 1018 1015
3 1024 1020 1021
3 1024 1021 1022
3 1024 1022 1023
3 1024 1023 1020
3 1029 1025 1026
3 1029 1026 1027
3 1029 1027 1028
3 1029 1028 1025
3 1034 1030 1031
3 1034 1031 1032
3 1034 1032 1033
3 1034 1033 1030
3 1039 1035 1036
3 1039 1036 1037
3 1039 1037 1038
3 1039 1038 1035
3 1044 1040 1041
3 1044 1041 1042
3 1044 1042 1043
3 1044 1043 1040
3 1049 1045 1046
3 1049 1046 1047
3 1049 1047 1048
3 1049 1048 1045
3 1054 1050 1051
3 1054 1051 1052
3 1054 1052 1053
3 1054 1053 1050
3 1059 1055 1056
3 1059 1056 1057
3 1059 1057 1058
3 1059 1058 1055
3 1064 1060 1061
3 1064 1061 1062
3 1064 1062 1063
3 1064 1063 1060
3 1069 1065 1066
3 1069 1066 1067
3 1069 1067 1068
3 1069 1068 1065
3 1074 1070 1071
3 1074 1071 1072
3 1074 1072 1073
3 1074 1073 1070
3 1079 1075 1076
3 1079 1076 1077
3 1079 1077 1078
3 1079 1078 1075
3 1084 1080 1081
3 1084 1081 1082
3 1084 1082 1083
3 1084 1083 1080
3 1089 1085 1086
3 1089 1086 1087
3 1089 1087 1088
3 1089 1088 1085
3 1094 1090 1091
3 1094 1091 1092
3 1094 1092 1093
3 1094 1093 1090
3 1099 1095 1096
3 1099 1096 1097
3 1099 1097 1098
3 1099 1098 1095
